<mxfile host="app.diagrams.net" modified="2020-12-30T09:14:28.129Z" agent="5.0 (Windows)" etag="BNGfTDwavNGXfWMVW0wb" version="14.0.1" type="github">
  <diagram id="kgpKYQtTHZ0yAKxKKP6v" name="Page-1">
    <mxGraphModel dx="782" dy="427" grid="1" gridSize="10" guides="1" tooltips="1" connect="1" arrows="1" fold="1" page="1" pageScale="1" pageWidth="850" pageHeight="1100" math="0" shadow="0">
      <root>
        <mxCell id="0" />
        <mxCell id="1" parent="0" />
        <mxCell id="5QdPKmFo6trkmAIozfQi-3" value="()درخواست خروج از حساب کاربری" style="html=1;verticalAlign=bottom;endArrow=block;labelBackgroundColor=none;fontFamily=Verdana;fontSize=12;edgeStyle=elbowEdgeStyle;elbow=vertical;" parent="1" source="5QdPKmFo6trkmAIozfQi-5" target="5QdPKmFo6trkmAIozfQi-7" edge="1">
          <mxGeometry relative="1" as="geometry">
            <mxPoint x="155" y="200" as="sourcePoint" />
            <mxPoint x="440" y="194" as="targetPoint" />
            <Array as="points">
              <mxPoint x="270" y="200" />
            </Array>
          </mxGeometry>
        </mxCell>
        <mxCell id="5QdPKmFo6trkmAIozfQi-4" value="sign out" style="shape=note;whiteSpace=wrap;html=1;size=14;verticalAlign=top;align=left;spacingTop=-6;rounded=0;shadow=0;comic=0;labelBackgroundColor=none;strokeWidth=1;fontFamily=Verdana;fontSize=12" parent="1" vertex="1">
          <mxGeometry width="100" height="35" as="geometry" />
        </mxCell>
        <mxCell id="5QdPKmFo6trkmAIozfQi-5" value="" style="shape=umlLifeline;participant=umlActor;perimeter=lifelinePerimeter;whiteSpace=wrap;html=1;container=1;collapsible=0;recursiveResize=0;verticalAlign=top;spacingTop=36;outlineConnect=0;" parent="1" vertex="1">
          <mxGeometry x="130" y="80" width="20" height="580" as="geometry" />
        </mxCell>
        <mxCell id="5QdPKmFo6trkmAIozfQi-6" value="&lt;font size=&quot;1&quot;&gt;&lt;b style=&quot;font-size: 20px&quot;&gt;کاربر&lt;/b&gt;&lt;/font&gt;" style="text;html=1;align=center;verticalAlign=middle;resizable=0;points=[];autosize=1;" parent="1" vertex="1">
          <mxGeometry x="95" y="60" width="50" height="20" as="geometry" />
        </mxCell>
        <mxCell id="5QdPKmFo6trkmAIozfQi-7" value="&lt;b&gt;&lt;font style=&quot;font-size: 24px&quot;&gt;سیستم &lt;br&gt;&lt;/font&gt;&lt;/b&gt;" style="shape=umlLifeline;perimeter=lifelinePerimeter;whiteSpace=wrap;html=1;container=1;collapsible=0;recursiveResize=0;outlineConnect=0;" parent="1" vertex="1">
          <mxGeometry x="300" y="90" width="100" height="570" as="geometry" />
        </mxCell>
        <mxCell id="5QdPKmFo6trkmAIozfQi-8" value="" style="html=1;points=[];perimeter=orthogonalPerimeter;rounded=0;shadow=0;comic=0;labelBackgroundColor=none;strokeWidth=1;fontFamily=Verdana;fontSize=12;align=center;" parent="5QdPKmFo6trkmAIozfQi-7" vertex="1">
          <mxGeometry x="45" y="90" width="10" height="260" as="geometry" />
        </mxCell>
        <mxCell id="5QdPKmFo6trkmAIozfQi-9" value="حذف حساب کاربر(اطلاعات کاربر)" style="html=1;verticalAlign=bottom;endArrow=block;labelBackgroundColor=none;fontFamily=Verdana;fontSize=12;edgeStyle=elbowEdgeStyle;elbow=vertical;" parent="1" target="5QdPKmFo6trkmAIozfQi-13" edge="1">
          <mxGeometry relative="1" as="geometry">
            <mxPoint x="350" y="230" as="sourcePoint" />
            <mxPoint x="549.5" y="230" as="targetPoint" />
            <Array as="points">
              <mxPoint x="495" y="230" />
            </Array>
          </mxGeometry>
        </mxCell>
        <mxCell id="5QdPKmFo6trkmAIozfQi-10" value="" style="html=1;points=[];perimeter=orthogonalPerimeter;" parent="1" vertex="1">
          <mxGeometry x="135" y="160" width="10" height="390" as="geometry" />
        </mxCell>
        <mxCell id="5QdPKmFo6trkmAIozfQi-11" value="تایید " style="html=1;verticalAlign=bottom;endArrow=open;dashed=1;endSize=8;" parent="1" source="5QdPKmFo6trkmAIozfQi-13" edge="1">
          <mxGeometry relative="1" as="geometry">
            <mxPoint x="549.5" y="260" as="sourcePoint" />
            <mxPoint x="360" y="260" as="targetPoint" />
            <Array as="points">
              <mxPoint x="440" y="260" />
            </Array>
          </mxGeometry>
        </mxCell>
        <mxCell id="5QdPKmFo6trkmAIozfQi-12" value="پیام موفقیت حذف حساب" style="html=1;verticalAlign=bottom;endArrow=open;dashed=1;endSize=8;entryX=0.7;entryY=0.297;entryDx=0;entryDy=0;entryPerimeter=0;" parent="1" target="5QdPKmFo6trkmAIozfQi-10" edge="1">
          <mxGeometry relative="1" as="geometry">
            <mxPoint x="350" y="276" as="sourcePoint" />
            <mxPoint x="370" y="270" as="targetPoint" />
          </mxGeometry>
        </mxCell>
        <mxCell id="5QdPKmFo6trkmAIozfQi-13" value="&lt;font style=&quot;font-size: 20px&quot;&gt;&lt;b&gt;&lt;font style=&quot;font-size: 20px&quot;&gt;دیتابیس خریدار&lt;br&gt;&lt;/font&gt;&lt;/b&gt;&lt;/font&gt;" style="shape=umlLifeline;perimeter=lifelinePerimeter;whiteSpace=wrap;html=1;container=1;collapsible=0;recursiveResize=0;outlineConnect=0;" parent="1" vertex="1">
          <mxGeometry x="520" y="90" width="140" height="570" as="geometry" />
        </mxCell>
        <mxCell id="5QdPKmFo6trkmAIozfQi-14" value="" style="html=1;points=[];perimeter=orthogonalPerimeter;rounded=0;shadow=0;comic=0;labelBackgroundColor=none;strokeWidth=1;fontFamily=Verdana;fontSize=12;align=center;" parent="5QdPKmFo6trkmAIozfQi-13" vertex="1">
          <mxGeometry x="65" y="90" width="10" height="120" as="geometry" />
        </mxCell>
      </root>
    </mxGraphModel>
  </diagram>
</mxfile>
